<svg width="32" height="32" viewBox="0 0 32 32" fill="none" xmlns="http://www.w3.org/2000/svg">
<rect width="32" height="32" rx="4" fill="#52D3A2" fill-opacity="0.2"/>
<path d="M15.3307 19.9574C12.6999 19.6294 10.6641 17.3851 10.6641 14.6654C10.6641 11.7198 13.0519 9.33203 15.9974 9.33203C18.9429 9.33203 21.3307 11.7198 21.3307 14.6654C21.3307 17.3851 19.2949 19.6294 16.6641 19.9574V21.3398C19.2949 21.4013 21.3307 21.8221 21.3307 22.332C21.3307 22.8843 18.9429 23.332 15.9974 23.332C13.0519 23.332 10.6641 22.8843 10.6641 22.332C10.6641 21.8221 12.6999 21.4013 15.3307 21.3398V19.9574ZM15.9974 15.9987C16.7338 15.9987 17.3307 15.4018 17.3307 14.6654C17.3307 13.929 16.7338 13.332 15.9974 13.332C15.261 13.332 14.6641 13.929 14.6641 14.6654C14.6641 15.4018 15.261 15.9987 15.9974 15.9987Z" fill="#121A0F"/>
</svg>
