<svg width="32" height="32" viewBox="0 0 32 32" fill="none" xmlns="http://www.w3.org/2000/svg">
<rect width="32" height="32" rx="4" fill="#52D3A2" fill-opacity="0.2"/>
<path d="M16.0026 14.6654C17.4753 14.6654 18.6693 13.4715 18.6693 11.9987C18.6693 10.5259 17.4753 9.33203 16.0026 9.33203C14.5298 9.33203 13.3359 10.5259 13.3359 11.9987C13.3359 13.4715 14.5298 14.6654 16.0026 14.6654ZM11.6693 16.6654C12.5897 16.6654 13.3359 15.9192 13.3359 14.9987C13.3359 14.0782 12.5897 13.332 11.6693 13.332C10.7488 13.332 10.0026 14.0782 10.0026 14.9987C10.0026 15.9192 10.7488 16.6654 11.6693 16.6654ZM22.0026 14.9987C22.0026 15.9192 21.2564 16.6654 20.3359 16.6654C19.4155 16.6654 18.6693 15.9192 18.6693 14.9987C18.6693 14.0782 19.4155 13.332 20.3359 13.332C21.2564 13.332 22.0026 14.0782 22.0026 14.9987ZM16.0026 15.332C17.8435 15.332 19.3359 16.8244 19.3359 18.6654V22.6654H12.6693V18.6654C12.6693 16.8244 14.1617 15.332 16.0026 15.332ZM11.3359 18.6653C11.3359 18.2034 11.4031 17.7571 11.5281 17.3358L11.415 17.3456C10.246 17.4723 9.33594 18.4626 9.33594 19.6653V22.6653H11.3359V18.6653ZM22.6693 22.6653V19.6653C22.6693 18.4239 21.6999 17.4089 20.4771 17.3358C20.6021 17.7571 20.6693 18.2034 20.6693 18.6653V22.6653H22.6693Z" fill="#121A0F"/>
</svg>
