<svg width="24" height="24" viewBox="0 0 24 24" fill="none" xmlns="http://www.w3.org/2000/svg">
    <circle cx="12" cy="12" r="12" fill="white"></circle>
    <path d="M14.4141 4H19.0043V8.36009L14.4141 4Z" fill="#52D3A2"></path>
    <path d="M16.2798 14.5161C16.0109 15.5196 15.4955 16.3068 14.7301 16.8756C13.9647 17.4454 13.0149 17.7303 11.8795 17.7303C10.8542 17.7303 9.95548 17.4865 9.1823 17.0001C8.40912 16.5136 7.81813 15.8351 7.40821 14.9667C6.99829 14.0983 6.79278 13.1095 6.79278 12.0005C6.79278 10.8767 6.99829 9.88485 7.40821 9.02275C7.81813 8.16171 8.41023 7.48744 9.1823 6.99993C9.9277 6.53037 10.792 6.28978 11.7718 6.2729V6.27079H11.8484C11.8584 6.27079 11.8684 6.26974 11.8795 6.26974C11.8895 6.26974 11.8984 6.27079 11.9084 6.27079H12.2895V4.00633C12.1928 4.00317 12.0962 4 11.9984 4C10.3898 4 8.98234 4.33344 7.7748 5.00033C6.56838 5.66616 5.63745 6.60212 4.98203 7.80822C4.32771 9.01431 4 10.4114 4 11.9995C4 13.6023 4.32771 15.0078 4.98203 16.2129C5.63634 17.419 6.56727 18.3518 7.77369 19.0113C8.98012 19.6708 10.3876 20 11.9973 20C13.2593 20 14.3868 19.7752 15.3799 19.3257C16.3731 18.8762 17.1818 18.2399 17.805 17.4158C18.4282 16.5917 18.8259 15.6251 18.9992 14.5172H16.2798V14.5161Z" fill="#121A0F"></path>
</svg>