<svg width="24" height="24" viewBox="0 0 24 24" fill="none" xmlns="http://www.w3.org/2000/svg">
<rect width="24" height="24" rx="2" fill="#0062FF"/>
<path fill-rule="evenodd" clip-rule="evenodd" d="M9.33366 5.3335C7.8609 5.3335 6.66699 6.5274 6.66699 8.00016V16.0002C6.66699 17.4729 7.8609 18.6668 9.33366 18.6668H14.667C16.1398 18.6668 17.3337 17.4729 17.3337 16.0002V9.83633C17.3337 9.53074 17.2287 9.23443 17.0363 8.99699L14.4684 5.82748C14.2153 5.51501 13.8346 5.3335 13.4324 5.3335H9.33366ZM14.417 7.88205V8.9335H15.2689L14.417 7.88205ZM9.33366 6.66683C8.59728 6.66683 8.00033 7.26378 8.00033 8.00016V16.0002C8.00033 16.7365 8.59728 17.3335 9.33366 17.3335H14.667C15.4034 17.3335 16.0003 16.7365 16.0003 16.0002V10.2668H14.417C13.6806 10.2668 13.0837 9.66988 13.0837 8.9335V6.66683H9.33366ZM12.667 13.6668L12.9337 13.4668C13.2282 13.2459 13.6461 13.3056 13.867 13.6002C14.0879 13.8947 14.0282 14.3126 13.7337 14.5335L12.4057 15.5295C12.2934 15.6156 12.1528 15.6668 12.0003 15.6668C11.8478 15.6668 11.7073 15.6156 11.5949 15.5295L10.267 14.5335C9.97244 14.3126 9.91274 13.8947 10.1337 13.6002C10.3546 13.3056 10.7724 13.2459 11.067 13.4668L11.3337 13.6668V11.0744C11.3337 10.7062 11.6321 10.4078 12.0003 10.4078C12.3685 10.4078 12.667 10.7062 12.667 11.0744V13.6668Z" fill="white"/>
</svg>
