<svg width="25" height="25" viewBox="0 0 25 25" fill="none" xmlns="http://www.w3.org/2000/svg">
<path d="M14.3519 22.7598C13.3519 22.7598 12.3678 22.6129 11.3996 22.3193C10.6894 22.1039 10.0391 21.7968 9.4485 21.3979C9.09784 21.161 9.07422 20.6686 9.3664 20.3625C9.62828 20.0882 10.0534 20.0618 10.3722 20.2672C10.8759 20.5916 11.4009 20.8351 11.9472 20.9979C12.6932 21.2201 13.4948 21.3312 14.3519 21.3312C16.2884 21.3312 17.9472 20.6407 19.3281 19.2598C20.7091 17.8788 21.3996 16.2201 21.3996 14.2836C21.3996 12.3471 20.7091 10.6883 19.3281 9.30738C17.9472 7.92643 16.2884 7.23596 14.3519 7.23596C13.9829 7.23596 13.7981 7.68212 14.059 7.94306L14.8281 8.71215C15.1174 9.00144 15.1174 9.47047 14.8281 9.75977C14.5388 10.0491 14.0698 10.0491 13.7805 9.75977L11.4608 7.44011C10.9536 6.93287 10.9536 6.11047 11.4608 5.60323L13.7805 3.28358C14.0698 2.99428 14.5388 2.99428 14.8281 3.28358C15.1174 3.57287 15.1174 4.0419 14.8281 4.33119L14.059 5.10028C13.7981 5.36122 13.9829 5.80738 14.3519 5.80738C16.6694 5.80738 18.6615 6.64072 20.3281 8.30738C21.9948 9.97405 22.8281 11.9661 22.8281 14.2836C22.8281 15.4423 22.6019 16.5336 22.1496 17.5574C21.6972 18.5812 21.0861 19.478 20.3162 20.2479C19.5464 21.0177 18.6496 21.6288 17.6257 22.0812C16.6019 22.5336 15.5107 22.7598 14.3519 22.7598ZM8.11384 19.4264L2.82812 14.1407L8.11384 8.855L13.3996 14.1407L8.11384 19.4264ZM8.11384 17.4741L11.3519 14.236L8.11384 10.9979L4.87574 14.236L8.11384 17.4741Z" fill="#2C71F0" stroke="#2C71F0" stroke-width="1.03909"/>
</svg>
