<svg width="32" height="32" viewBox="0 0 32 32" fill="none" xmlns="http://www.w3.org/2000/svg">
<rect width="32" height="32" rx="4" fill="#52D3A2" fill-opacity="0.2"/>
<g clip-path="url(#clip0_2501_26925)">
<path d="M9.75 13.25H9.25V17.25H9.75V13.25Z" fill="#5C6373"/>
<path d="M9.75 17.75H9.25V19H9.75V17.75Z" fill="#5C6373"/>
<path d="M16.25 11.5H15.75V12.75H16.25V11.5Z" fill="#5C6373"/>
<path d="M16.25 13.25H15.75V14.5H16.25V13.25Z" fill="#5C6373"/>
<path d="M13.75 22.5H10.5V23.5H13.75V22.5Z" fill="#5C6373"/>
<path d="M21.5 22.5H18.25V23.5H21.5V22.5Z" fill="#5C6373"/>
<path d="M23.5 10H10V11.5H23.5V10Z" fill="#121A0F"/>
<path d="M10 8.5L8.5 9.5V11.25C8.5 12.325 9.05 13.35 9.95 13.95L10 14V8.5Z" fill="#121A0F"/>
<path d="M16 13.5C16.2761 13.5 16.5 13.2761 16.5 13C16.5 12.7239 16.2761 12.5 16 12.5C15.7239 12.5 15.5 12.7239 15.5 13C15.5 13.2761 15.7239 13.5 16 13.5Z" fill="#A6A6A6"/>
<path d="M21.75 17.75V11.5H22.75V17.75" fill="#5C6373"/>
<path d="M9.5 18C9.77614 18 10 17.7761 10 17.5C10 17.2239 9.77614 17 9.5 17C9.22386 17 9 17.2239 9 17.5C9 17.7761 9.22386 18 9.5 18Z" fill="#A6A6A6"/>
<path d="M22.25 20C22.9404 20 23.5 19.4404 23.5 18.75C23.5 18.0596 22.9404 17.5 22.25 17.5C21.5596 17.5 21 18.0596 21 18.75C21 19.4404 21.5596 20 22.25 20Z" fill="#A6A6A6"/>
<path d="M18.5 23.5L17.25 14.5H14.75L13.5 23.5H18.5Z" fill="#121A0F"/>
<path d="M17.7469 18.1L17.6219 17.275L14.8469 14.5H14.7469L14.6719 15.025L17.7469 18.1Z" fill="#121A0F"/>
<path d="M17.25 14.5H17.15L14.375 17.275L14.25 18.1L17.325 15.025L17.25 14.5Z" fill="#121A0F"/>
<path d="M14.0469 19.6L18.3719 23.5H18.4969L18.3969 22.85L14.1219 19L14.0469 19.6Z" fill="#121A0F"/>
<path d="M17.875 19L13.6 22.85L13.5 23.5H13.625L17.95 19.6L17.875 19Z" fill="#121A0F"/>
<path d="M14.1484 18.75H17.8484L17.7734 18.25H14.2234L14.1484 18.75Z" fill="#121A0F"/>
<path d="M11.75 22.5H11.25V23.5H11.75V22.5Z" fill="#A6A6A6"/>
<path d="M20.75 22.5H20.25V23.5H20.75V22.5Z" fill="#A6A6A6"/>
<path d="M19.75 22.5H19.25V23.5H19.75V22.5Z" fill="#A6A6A6"/>
<path d="M20.175 11.5H20.75V11.475V10.6L21.675 11.5H22.25V11.475V10.6L23.175 11.5H23.5V11.125L22.35 10H21.75V10.875L20.85 10H20.25V10.875L19.35 10H18.75V10.9L17.85 10H17.25V10.875L16.35 10H15.75V10.875L14.85 10H14.25V10.875L13.35 10H12.75V10.875L11.85 10H11.25V10.9L10.35 10H10V10.35L11.15 11.5H11.75V10.6L12.675 11.5H13.25V11.475V10.6L14.175 11.5H14.75V11.475V10.6L15.675 11.5H16.25V11.475V10.6L17.175 11.5H17.75V11.475V10.6L18.65 11.5H19.25V10.6L20.175 11.5Z" fill="#121A0F"/>
<path d="M10 9.75H8.5V10.25H10V9.75Z" fill="#121A0F"/>
<path d="M10 10.75H8.5V11.25H10V10.75Z" fill="#121A0F"/>
<path d="M8.64687 12.25H9.99688V11.75H8.54688C8.57188 11.925 8.59687 12.075 8.64687 12.25Z" fill="#121A0F"/>
<path d="M12.75 22.5H12.25V23.5H12.75V22.5Z" fill="#A6A6A6"/>
</g>
<defs>
<clipPath id="clip0_2501_26925">
<rect width="16" height="16" fill="white" transform="translate(8 8)"/>
</clipPath>
</defs>
</svg>
