<svg width="16" height="16" viewBox="0 0 16 16" fill="none" xmlns="http://www.w3.org/2000/svg">
<path d="M7.99967 14.6668C4.31777 14.6668 1.33301 11.682 1.33301 8.00016C1.33301 4.31826 4.31777 1.3335 7.99967 1.3335C11.6815 1.3335 14.6663 4.31826 14.6663 8.00016C14.6663 11.682 11.6815 14.6668 7.99967 14.6668ZM7.99967 13.3335C10.9452 13.3335 13.333 10.9457 13.333 8.00016C13.333 5.05464 10.9452 2.66683 7.99967 2.66683C5.05415 2.66683 2.66634 5.05464 2.66634 8.00016C2.66634 10.9457 5.05415 13.3335 7.99967 13.3335ZM7.33474 10.6668L4.50633 7.83843L5.44915 6.89556L7.33474 8.78123L11.106 5.00998L12.0488 5.95278L7.33474 10.6668Z" fill="#13B05B"/>
</svg>
