<svg width="32" height="32" viewBox="0 0 32 32" fill="none" xmlns="http://www.w3.org/2000/svg">
<rect width="32" height="32" rx="4" fill="#52D3A2" fill-opacity="0.2"/>
<path d="M9.36719 16.668H13.0191C13.1385 18.8472 13.8392 20.8716 14.969 22.5886C11.9927 22.1261 9.66771 19.6948 9.36719 16.668ZM9.36719 15.3347C9.66771 12.3078 11.9927 9.87656 14.969 9.41406C13.8392 11.1311 13.1385 13.1555 13.0191 15.3347H9.36719ZM22.6347 15.3347H18.9827C18.8634 13.1555 18.1626 11.1311 17.0329 9.41406C20.0092 9.87656 22.3342 12.3078 22.6347 15.3347ZM22.6347 16.668C22.3342 19.6948 20.0092 22.1261 17.0329 22.5886C18.1626 20.8716 18.8634 18.8472 18.9827 16.668H22.6347ZM14.3548 16.668H17.6471C17.5327 18.5232 16.944 20.2502 16.0009 21.729C15.0578 20.2502 14.4692 18.5232 14.3548 16.668ZM14.3548 15.3347C14.4692 13.4794 15.0578 11.7525 16.0009 10.2737C16.944 11.7525 17.5327 13.4794 17.6471 15.3347H14.3548Z" fill="#121A0F"/>
</svg>
