<svg width="25" height="25" viewBox="0 0 25 25" fill="none" xmlns="http://www.w3.org/2000/svg">
<path d="M20.4301 21.7593L14.1301 15.4593C13.6301 15.8593 13.0551 16.1759 12.4051 16.4093C11.7551 16.6426 11.0634 16.7593 10.3301 16.7593C8.51341 16.7593 6.97608 16.1303 5.71808 14.8723C4.45941 13.6136 3.83008 12.0759 3.83008 10.2593C3.83008 8.44261 4.45941 6.90494 5.71808 5.64628C6.97608 4.38828 8.51341 3.75928 10.3301 3.75928C12.1467 3.75928 13.6844 4.38828 14.9431 5.64628C16.2011 6.90494 16.8301 8.44261 16.8301 10.2593C16.8301 10.9926 16.7134 11.6843 16.4801 12.3343C16.2467 12.9843 15.9301 13.5593 15.5301 14.0593L21.8301 20.3593L20.4301 21.7593ZM10.3301 14.7593C11.5801 14.7593 12.6427 14.3219 13.5181 13.4473C14.3927 12.5719 14.8301 11.5093 14.8301 10.2593C14.8301 9.00928 14.3927 7.94661 13.5181 7.07128C12.6427 6.19661 11.5801 5.75928 10.3301 5.75928C9.08008 5.75928 8.01741 6.19661 7.14208 7.07128C6.26741 7.94661 5.83008 9.00928 5.83008 10.2593C5.83008 11.5093 6.26741 12.5719 7.14208 13.4473C8.01741 14.3219 9.08008 14.7593 10.3301 14.7593ZM7.83008 11.2593V9.25928H12.8301V11.2593H7.83008Z" fill="#2C71F0"/>
</svg>
