
<svg width="80" height="16" viewBox="0 0 80 16" fill="none" xmlns="http://www.w3.org/2000/svg">
<path d="M29.8354 5.61422C30.1958 6.30619 30.376 7.11691 30.376 8.04719C30.376 8.95371 30.1958 9.75297 29.8354 10.4449C29.475 11.1369 28.9745 11.6717 28.3348 12.0492C27.6951 12.4267 26.9686 12.6159 26.1544 12.6159C25.4918 12.6159 24.9159 12.4938 24.4278 12.2498C23.9396 12.0058 23.5497 11.6741 23.2589 11.2557V15.9996H21.375V3.58252L23.0148 3.58252L23.2417 4.90832C23.9625 3.95512 24.934 3.47852 26.1552 3.47852C26.9694 3.47852 27.6959 3.66113 28.3356 4.028C28.9754 4.39487 29.475 4.92225 29.8354 5.61422ZM28.4569 8.04719C28.4569 7.16359 28.2152 6.44868 27.7328 5.90247C27.2503 5.35626 26.6196 5.08275 25.8399 5.08275C25.0609 5.08275 24.4327 5.35299 23.956 5.89347C23.4792 6.43394 23.2409 7.14066 23.2409 8.01279C23.2409 8.90786 23.4792 9.63422 23.956 10.1927C24.4327 10.7504 25.0609 11.0296 25.8399 11.0296C26.6188 11.0296 27.2495 10.7504 27.7328 10.1927C28.2161 9.63504 28.4569 8.91932 28.4569 8.04719Z" fill="#121A0F"/>
<path d="M34.3984 5.23794V3.5813H35.9506V1.08691L37.8517 1.08691V3.58048L39.9977 3.58048V5.23713H37.8517V9.89342C37.8517 10.2423 37.9214 10.4896 38.0614 10.6345C38.2007 10.7795 38.439 10.8524 38.7765 10.8524H40.2066V12.509H38.3923C37.5437 12.509 36.9245 12.3116 36.5346 11.9161C36.1447 11.5206 35.9506 10.9105 35.9506 10.085V5.23794H34.3984Z" fill="#121A0F"/>
<path d="M52.1964 0.302246V12.5105H50.3125V0.302246L52.1964 0.302246Z" fill="#121A0F"/>
<path d="M70.3934 3.58057V4.92357L65.4044 10.8533H70.6195V12.5099L62.875 12.5099V11.1669L67.8633 5.23721L63.0839 5.23721V3.58057L70.3934 3.58057Z" fill="#121A0F"/>
<path d="M73.3354 4.04178C73.9923 3.66345 74.7451 3.4751 75.5945 3.4751C76.4553 3.4751 77.2138 3.64952 77.8707 3.99838C78.5276 4.34723 79.0453 4.84103 79.4229 5.4806C79.8013 6.12016 79.9954 6.87028 80.0069 7.73013C80.0069 7.9627 79.9897 8.201 79.9545 8.44503H73.2216V8.54985C73.2682 9.32863 73.5123 9.94527 73.9538 10.3981C74.3953 10.8518 74.9826 11.0786 75.7157 11.0786C76.2972 11.0786 76.7854 10.9419 77.181 10.6684C77.5767 10.3948 77.838 10.0083 77.9657 9.50879H79.8496C79.6866 10.4161 79.2484 11.1597 78.5325 11.7411C77.8167 12.3225 76.9247 12.6133 75.8549 12.6133C74.9244 12.6133 74.1135 12.4249 73.4214 12.0466C72.7293 11.6682 72.1944 11.1368 71.8168 10.4505C71.4384 9.76429 71.25 8.96831 71.25 8.06178C71.25 7.14297 71.4335 6.33799 71.7996 5.64602C72.1674 4.95486 72.6785 4.42011 73.3354 4.04178ZM77.3129 5.54201C76.8772 5.17596 76.3276 4.99253 75.6641 4.99253C75.0473 4.99253 74.5157 5.1817 74.0677 5.55921C73.6204 5.93673 73.3608 6.43953 73.2912 7.06763L78.0886 7.06763C78.0075 6.4166 77.7487 5.90806 77.3129 5.54201Z" fill="#121A0F"/>
<path d="M19.9761 10.2471V8.45286V6.72415C19.9761 5.67759 19.6501 4.87588 18.9989 4.31739C18.3477 3.75972 17.423 3.48047 16.2254 3.48047C15.0976 3.48047 14.1843 3.72778 13.4864 4.22158C12.7885 4.7162 12.3929 5.41063 12.3004 6.30569H14.1499C14.2195 5.91016 14.4316 5.59406 14.7863 5.35494C15.141 5.11664 15.5915 4.99708 16.1386 4.99708C16.7546 4.99708 17.2378 5.13957 17.586 5.42455C17.9349 5.70953 18.1094 6.10178 18.1094 6.60132V7.14179L15.8593 7.14179C14.6151 7.14179 13.6674 7.3891 13.0162 7.8829C12.3651 8.37752 12.0391 9.08342 12.0391 10.0014C12.0391 10.8154 12.3413 11.455 12.9458 11.9201C13.5503 12.3852 14.353 12.6178 15.3531 12.6178C16.644 12.6178 17.6269 12.106 18.301 11.0832C18.301 11.5483 18.4288 11.9029 18.6852 12.1469C18.9407 12.391 19.3593 12.513 19.9408 12.513H19.9761V10.2471ZM18.1094 8.85167C18.0979 9.54937 17.8735 10.107 17.4377 10.5255C17.0019 10.944 16.3942 11.1536 15.6152 11.1536C15.1033 11.1536 14.6995 11.0373 14.403 10.8048C14.1065 10.5722 13.9582 10.2643 13.9582 9.88021C13.9582 9.43882 14.1155 9.10389 14.4292 8.87787C14.7429 8.65103 15.1909 8.53803 15.7725 8.53803L18.1102 8.53803V8.85167H18.1094Z" fill="#121A0F"/>
<path d="M19.9736 8.53857H18.0938V12.5299H19.9736V8.53857Z" fill="#121A0F"/>
<path d="M48.9761 10.2402V8.44602V6.71732C48.9761 5.67075 48.6501 4.86905 47.9989 4.31055C47.3477 3.75288 46.423 3.47363 45.2254 3.47363C44.0976 3.47363 43.1843 3.72094 42.4864 4.21474C41.7885 4.70936 41.3929 5.40379 41.3004 6.29885H43.1499C43.2195 5.90332 43.4316 5.58723 43.7863 5.34811C44.141 5.1098 44.5915 4.99025 45.1386 4.99025C45.7546 4.99025 46.2378 5.13273 46.586 5.41771C46.9349 5.70269 47.1094 6.09495 47.1094 6.59448V7.13496L44.8593 7.13496C43.6151 7.13496 42.6674 7.38227 42.0162 7.87607C41.3651 8.37068 41.0391 9.07658 41.0391 9.99457C41.0391 10.8086 41.3413 11.4481 41.9458 11.9133C42.5503 12.3784 43.353 12.611 44.3531 12.611C45.644 12.611 46.6269 12.0992 47.301 11.0763C47.301 11.5415 47.4288 11.8961 47.6852 12.1401C47.9407 12.3841 48.3593 12.5062 48.9408 12.5062H48.9761V10.2402ZM47.1094 8.84483C47.0979 9.54254 46.8735 10.1002 46.4377 10.5187C46.0019 10.9371 45.3942 11.1468 44.6152 11.1468C44.1033 11.1468 43.6995 11.0305 43.403 10.7979C43.1064 10.5653 42.9582 10.2574 42.9582 9.87337C42.9582 9.43198 43.1155 9.09705 43.4292 8.87104C43.7429 8.64502 44.1909 8.53119 44.7725 8.53119L47.1102 8.53119V8.84483H47.1094Z" fill="#121A0F"/>
<path d="M48.9736 8.53174H47.0938V12.5231H48.9736V8.53174Z" fill="#121A0F"/>
<path d="M58.4366 12.5844L54.9481 3.58545L53.0625 3.58545L56.551 12.5844L58.4366 12.5844Z" fill="#121A0F"/>
<path d="M60.4402 3.58627L56.9836 12.5344L57.0033 12.5852L56.6372 13.4393C56.6265 13.4655 56.6167 13.4868 56.606 13.5114L56.5921 13.5466L56.5913 13.5458C56.457 13.8652 56.3259 14.0814 56.2006 14.1804C56.0613 14.291 55.8107 14.3459 55.4503 14.3459H54.125V16.0025H56.1482C56.5782 16.0025 56.9214 15.9296 57.1769 15.7847C57.4325 15.6397 57.6479 15.4244 57.8224 15.1394C57.9968 14.8544 58.1885 14.4449 58.3982 13.9102L62.4453 3.58545L60.4402 3.58545V3.58627Z" fill="#121A0F"/>
<path d="M23.2417 3.58057L21.375 3.58057V11.7467H23.2417V3.58057Z" fill="#121A0F"/>
<path d="M33.5611 1.13418C33.5611 1.46011 33.4505 1.73035 33.2294 1.94572C33.0082 2.16109 32.7346 2.26837 32.4095 2.26837C32.0835 2.26837 31.8099 2.16109 31.5895 1.94572C31.3684 1.73035 31.2578 1.46011 31.2578 1.13418C31.2578 0.808259 31.3684 0.538021 31.5895 0.322649C31.8107 0.107277 32.0843 0 32.4095 0C32.7355 0 33.009 0.107277 33.2294 0.322649C33.4513 0.538021 33.5611 0.808259 33.5611 1.13418ZM33.3522 3.57698V12.5104H31.4675V3.57698L33.3522 3.57698Z" fill="#121A0F"/>
<path d="M7.67969 0.19873L11.0642 0.19873V3.58245L7.67969 0.19873Z" fill="#52D3A2"/>
<path d="M9.05424 8.35994C8.85602 9.13872 8.47596 9.74962 7.91161 10.191C7.34726 10.6332 6.64693 10.8543 5.80982 10.8543C5.0538 10.8543 4.39115 10.6652 3.82106 10.2876C3.25098 9.91013 2.81522 9.38357 2.51297 8.70961C2.21073 8.03565 2.0592 7.26834 2.0592 6.40767C2.0592 5.53553 2.21073 4.76576 2.51297 4.09672C2.81522 3.42849 3.2518 2.90521 3.82106 2.52688C4.37068 2.16246 5.00793 1.97575 5.73037 1.96265V1.96101H5.78688C5.79426 1.96101 5.80163 1.9602 5.80982 1.9602C5.81719 1.9602 5.82374 1.96101 5.83112 1.96101H6.11206V0.203644C6.0408 0.201187 5.96954 0.19873 5.89746 0.19873C4.71142 0.19873 3.67363 0.457505 2.78327 0.975053C1.89374 1.49178 1.20734 2.21815 0.724077 3.15416C0.241632 4.09017 0 5.1744 0 6.40685C0 7.65077 0.241632 8.74155 0.724077 9.67674C1.20652 10.6127 1.89292 11.3367 2.78246 11.8485C3.67199 12.3603 4.70978 12.6158 5.89664 12.6158C6.82713 12.6158 7.65851 12.4414 8.39078 12.0925C9.12305 11.7437 9.71935 11.2499 10.1789 10.6103C10.6384 9.97072 10.9316 9.22061 11.0594 8.36076H9.05424V8.35994Z" fill="#121A0F"/>
</svg>
